<?xml version="1.0" encoding="utf-8"?>
<!-- Generator: Adobe Illustrator 19.1.0, SVG Export Plug-In . SVG Version: 6.00 Build 0)  -->
<svg version="1.1" id="Layer_1" xmlns="http://www.w3.org/2000/svg" xmlns:xlink="http://www.w3.org/1999/xlink" x="0px" y="0px"
	 viewBox="0 0 835 165.8" enable-background="new 0 0 835 165.8" xml:space="preserve">
<g>
	<rect fill="#EAEAEA" width="835" height="165.8"/>
	<g>
		<path fill="#919195" d="M277.5,56.9H268v19.4h-5.2V31.1h13C286.3,31.1,292,37,292,44c0,5.4-3.2,9.9-9.2,11.9L295,76.3h-6.1
			L277.5,56.9z M268,35.6v16.8h7.8c7.5,0,11-3.7,11-8.4c0-4.6-3.5-8.4-11-8.4H268z"/>
		<path fill="#919195" d="M326.4,56.9v3.9h-24.6c0.4,7.4,4.5,11.5,12.3,11.6c3.4,0,6.7-0.6,9.5-1.9l1.1,4.2
			c-3.3,1.5-6.9,2.3-10.6,2.3c-10.1,0-17.4-6.3-17.4-16.7c0-8.8,6.3-16.7,15.5-16.8C320.4,43.4,325.4,48.2,326.4,56.9 M302.2,56.3
			h19c-0.3-5.3-4.1-8.4-9-8.4C306.9,47.9,303.3,51.6,302.2,56.3"/>
		<path fill="#919195" d="M328.3,44h5.2V33.7h5.2V44h9.5v4.5h-9.5v17.1c0,4.5,2.4,6.5,5.8,6.5c1.9,0,3.6-0.2,5.1-0.8l1.3,4
			c-1.9,1-4.1,1.4-6.4,1.4c-6.3,0-11-3.9-11-11V48.5h-5.2V44z"/>
		<path fill="#919195" d="M384.5,62.1c0,9-6.6,14.8-14.9,14.8c-8.2,0-14.8-5.9-14.8-14.8V44h5.2v18.1c0,6.4,4.3,10.3,9.7,10.3
			c5.4,0,9.7-3.9,9.7-10.3V44h5.2V62.1z"/>
		<path fill="#919195" d="M392.2,44h5.2v3.6l0.4,0.2c2.2-2.6,5.7-4.5,9.9-4.5h0.9v4.5H407c-3.9,0-7.3,1.9-9.6,4.8v23.6h-5.2V44z"/>
		<path fill="#919195" d="M413.1,44h5.2v4.2l0.4,0.1c2.4-2.9,6.5-5,11.8-5c6.4,0,11.7,4.6,11.7,13.5v19.4H437V56.9
			c0-6.3-3.5-9-7.8-9c-4.5,0-8.6,2-10.9,6.1v22.3h-5.2V44z"/>
		<path fill="#919195" d="M449.3,70.2c3.1,1.2,6.5,2.2,9.6,2.2c3.6,0,6.9-1.5,6.9-5.1c0-2.5-1.7-4.1-7-5.4
			c-6.1-1.6-10.5-4.3-10.5-9.3c0-6.1,5.4-9.2,11.4-9.2c3.7,0,7.2,1,10.4,2.5l-1.4,4.3c-2.9-1.2-6-2.2-9-2.2c-3.3,0-6.3,1.6-6.3,4.7
			c0,2.2,1.7,3.7,6.5,4.8c6.8,1.6,11,4.6,11,9.9c0,6.6-5.8,9.6-12.1,9.6c-3.8,0-7.6-0.8-11-2.1L449.3,70.2z"/>
		<path fill="#0F9BD2" d="M47.4,65.4c0,0-2.3-2.8-3.7-4.4l-1.9,4.5c2.8,4.1,4.6,7.6,5.6,9.3c2-3.3,6.7-13.2,16.6-22.4L63,50
			C56.5,54.7,51.1,60.8,47.4,65.4"/>
		<path fill-rule="evenodd" clip-rule="evenodd" fill="#F26822" d="M146.3,66.4c0,2.6,1.5,4,4,4.4v6.4c-7.3-0.1-11.2-3.6-11.2-10.3
			V29.6h7.2V66.4z"/>
		<path fill-rule="evenodd" clip-rule="evenodd" fill="#F26822" d="M168.9,43.5c-9,0-16.2,7.4-16.2,16.7c0,9.3,6.9,16.7,15.5,16.7
			c4.4,0,7.9-1.7,10-4.1l0.4,0.1v3.3h7.2V44.1h-7.2v2.3l-0.3,0.1C176.2,44.7,173.2,43.5,168.9,43.5 M169.8,70.9
			c-5.4,0-9.9-4.7-9.9-10.7c0-6.1,4.4-10.7,9.9-10.7c3.5,0,6.6,1,8.8,2.7V66C176.7,69.6,173.4,70.9,169.8,70.9"/>
		<path fill-rule="evenodd" clip-rule="evenodd" fill="#F26822" d="M191.8,76.4h7.2V53.8c2.3-2.3,5.4-3.8,9.1-3.8h1.5v-6.6h-0.9
			c-3.9,0-7.2,1.9-9.3,4.4l-0.4-0.1v-3.7h-7.2V76.4z"/>
		<path fill-rule="evenodd" clip-rule="evenodd" fill="#F26822" d="M116.2,43.5c-9,0-16.2,7.4-16.2,16.7c0,9.3,6.9,16.7,15.5,16.7
			c4.4,0,7.9-1.7,10-4.1L126,73v3.3h7.2V44.1H126v2.3l-0.3,0.1C123.5,44.7,120.6,43.5,116.2,43.5 M117.1,70.9
			c-5.4,0-9.9-4.7-9.9-10.7c0-6.1,4.4-10.7,9.9-10.7c3.5,0,6.6,1,8.8,2.7V66C124.1,69.6,120.7,70.9,117.1,70.9"/>
		<path fill-rule="evenodd" clip-rule="evenodd" fill="#F26822" d="M227.2,43.5c-9,0-16.2,7.4-16.2,16.7c0,9.3,6.9,16.7,15.5,16.7
			c4.4,0,7.9-1.7,10-4.1l0.4,0.1v3.3h7.2V44.1h-7.2v2.3l-0.3,0.1C234.5,44.7,231.5,43.5,227.2,43.5 M228.1,70.9
			c-5.4,0-9.8-4.7-9.8-10.7c0-6.1,4.4-10.7,9.8-10.7c3.5,0,6.6,1,8.8,2.7V66C235,69.6,231.7,70.9,228.1,70.9"/>
		<path fill="#F26822" d="M61.8,76.3h7.8l-6.9-16.5c-2,2.1-3.8,4.3-5.3,6.3L61.8,76.3z"/>
		<polygon fill="#F26822" points="93,44.2 83,67.7 82.9,67.7 82.8,67.7 82.8,67.7 82.8,67.7 82.7,67.7 82.7,67.7 82.6,67.7 
			72.5,44.2 64.7,44.2 79.1,76.3 79.1,76.3 79.2,76.3 86.4,76.3 86.4,76.3 86.4,76.3 100.8,44.2 		"/>
		<path fill="#F26822" d="M50.9,31.3L50.9,31.3H44h0L25.2,76.3H33l13.6-32l0.6-1.7h0.4l0.6,1.7l4,9.5c1.8-1.8,3.7-3.5,5.8-5.2
			L50.9,31.3z"/>
	</g>
	<g>
		<path fill="#5F6163" d="M29.7,105.4v7.8h-1.9V96.3h10V98h-8.1v5.7h7.7v1.7H29.7z"/>
		<path fill="#5F6163" d="M41.9,96.2c0.6,0,1.2,0.5,1.2,1.2c0,0.6-0.5,1.2-1.2,1.2c-0.6,0-1.2-0.5-1.2-1.2
			C40.7,96.7,41.2,96.2,41.9,96.2z M40.9,101.1h1.9v12h-1.9V101.1z"/>
		<path fill="#5F6163" d="M50.7,113.4c-2.2,0-3.6-1.2-3.6-3.4V95.6H49V110c0,1.1,0.8,1.6,1.9,1.7L50.7,113.4z"/>
		<path fill="#5F6163" d="M64.1,105.9v1.4H55c0.1,2.8,1.7,4.3,4.6,4.3c1.3,0,2.5-0.2,3.5-0.7l0.4,1.6c-1.2,0.6-2.6,0.8-3.9,0.8
			c-3.7,0-6.5-2.4-6.5-6.2c0-3.3,2.3-6.2,5.8-6.3C61.9,100.9,63.8,102.7,64.1,105.9z M55.1,105.7h7.1c-0.1-2-1.5-3.1-3.3-3.1
			C56.9,102.6,55.5,104,55.1,105.7z"/>
		<path fill="#5F6163" d="M81.9,102.1l0.1,0v-0.9h1.9v12H82v-1.3l-0.1-0.1c-0.8,1-2.2,1.6-3.9,1.6c-3.2,0-5.8-2.8-5.8-6.2
			c0-3.5,2.7-6.2,6-6.2C79.9,100.9,81,101.4,81.9,102.1z M82,109.7v-5.9c-0.9-0.7-2.1-1.2-3.6-1.2c-2.4,0-4.3,2-4.3,4.6
			c0,2.5,2,4.6,4.3,4.6C79.9,111.7,81.3,111.1,82,109.7z"/>
		<path fill="#5F6163" d="M93,111.7c1,0,1.8-0.1,2.6-0.6l0.5,1.6c-1,0.5-2,0.7-3.1,0.7c-3.3,0-6-2.8-6-6.2c0-3.5,2.7-6.2,6-6.2
			c1.1,0,2.1,0.1,3.1,0.7l-0.5,1.5c-0.7-0.3-1.5-0.6-2.6-0.6c-2.3,0-4.1,2.1-4.1,4.6C89,109.7,90.8,111.7,93,111.7z"/>
		<path fill="#5F6163" d="M103.6,111.7c1,0,1.8-0.1,2.6-0.6l0.5,1.6c-1,0.5-2,0.7-3.1,0.7c-3.3,0-6-2.8-6-6.2c0-3.5,2.7-6.2,6-6.2
			c1.1,0,2.1,0.1,3.1,0.7l-0.5,1.5c-0.7-0.3-1.5-0.6-2.6-0.6c-2.3,0-4.1,2.1-4.1,4.6C99.5,109.7,101.3,111.7,103.6,111.7z"/>
		<path fill="#5F6163" d="M119.9,107.9c0,3.3-2.5,5.5-5.5,5.5c-3,0-5.5-2.2-5.5-5.5v-6.7h1.9v6.7c0,2.4,1.6,3.8,3.6,3.8
			s3.6-1.5,3.6-3.8v-6.7h1.9V107.9z"/>
		<path fill="#5F6163" d="M123.5,101.1h1.9v1.3l0.1,0.1c0.8-1,2.1-1.7,3.7-1.7h0.3v1.7H129c-1.5,0-2.7,0.7-3.6,1.8v8.8h-1.9V101.1z"
			/>
		<path fill="#5F6163" d="M140.3,102.1l0.1,0v-0.9h1.9v12h-1.9v-1.3l-0.1-0.1c-0.8,1-2.2,1.6-3.9,1.6c-3.2,0-5.8-2.8-5.8-6.2
			c0-3.5,2.7-6.2,6-6.2C138.3,100.9,139.5,101.4,140.3,102.1z M140.4,109.7v-5.9c-0.9-0.7-2.1-1.2-3.6-1.2c-2.4,0-4.3,2-4.3,4.6
			c0,2.5,2,4.6,4.3,4.6C138.3,111.7,139.7,111.1,140.4,109.7z"/>
		<path fill="#5F6163" d="M144.8,101.1h1.9v-3.8h1.9v3.8h3.6v1.7h-3.6v6.4c0,1.7,0.9,2.4,2.2,2.4c0.7,0,1.3-0.1,1.9-0.3l0.5,1.5
			c-0.7,0.4-1.5,0.5-2.4,0.5c-2.3,0-4.1-1.5-4.1-4.1v-6.4h-1.9V101.1z"/>
		<path fill="#5F6163" d="M165.9,105.9v1.4h-9.1c0.1,2.8,1.7,4.3,4.6,4.3c1.3,0,2.5-0.2,3.5-0.7l0.4,1.6c-1.2,0.6-2.6,0.8-3.9,0.8
			c-3.7,0-6.5-2.4-6.5-6.2c0-3.3,2.3-6.2,5.8-6.3C163.7,100.9,165.5,102.7,165.9,105.9z M156.9,105.7h7.1c-0.1-2-1.5-3.1-3.3-3.1
			C158.6,102.6,157.3,104,156.9,105.7z"/>
		<path fill="#5F6163" d="M172.5,113.4c-2.2,0-3.6-1.2-3.6-3.4V95.6h1.9V110c0,1.1,0.8,1.6,1.9,1.7L172.5,113.4z"/>
		<path fill="#5F6163" d="M180.1,110.2l0.1,0.6h0.1l3.4-9.7h2.2l-5.5,14.1c-0.8,2.1-1.9,3.8-5.1,3.8l-0.2-1.7c2,0,2.8-0.8,3.5-2.6
			l0.7-1.9l-5.2-11.8h2.2L180.1,110.2z"/>
		<path fill="#5F6163" d="M203,102.1l0.1,0v-0.9h1.9v12h-1.9v-1.3l-0.1-0.1c-0.8,1-2.2,1.6-3.9,1.6c-3.2,0-5.8-2.8-5.8-6.2
			c0-3.5,2.7-6.2,6-6.2C201,100.9,202.1,101.4,203,102.1z M203.1,109.7v-5.9c-0.9-0.7-2.1-1.2-3.6-1.2c-2.4,0-4.3,2-4.3,4.6
			c0,2.5,2,4.6,4.3,4.6C201,111.7,202.4,111.1,203.1,109.7z"/>
		<path fill="#5F6163" d="M209.1,101.1h1.9v1.6l0.1,0c0.9-1.1,2.4-1.8,4.4-1.8c2.4,0,4.3,1.7,4.3,5v7.2H218v-7.2
			c0-2.4-1.3-3.4-2.9-3.4c-1.7,0-3.2,0.7-4.1,2.3v8.3h-1.9V101.1z"/>
		<path fill="#5F6163" d="M232.2,101.9v-6.3h1.9v17.5h-1.9V112l-0.1,0c-0.8,0.8-2.1,1.4-3.7,1.4c-3.2,0-5.8-2.8-5.8-6.2
			c0-3.5,2.7-6.2,6-6.2C230.1,100.9,231.2,101.3,232.2,101.9z M232.2,110.1v-6.7c-0.9-0.5-2-0.8-3.4-0.8c-2.4,0-4.3,2-4.3,4.6
			c0,2.5,2,4.6,4.3,4.6C230.1,111.7,231.4,111.2,232.2,110.1z"/>
		<path fill="#5F6163" d="M249.2,100.9c3.5,0,6.3,2.8,6.3,6.2c0,3.5-2.8,6.2-6.3,6.2c-3.5,0-6.2-2.8-6.2-6.2
			C243,103.7,245.7,100.9,249.2,100.9z M249.2,111.7c2.4,0,4.3-2,4.3-4.6c0-2.5-2-4.6-4.3-4.6c-2.4,0-4.3,2.1-4.3,4.6
			C244.9,109.7,246.8,111.7,249.2,111.7z"/>
		<path fill="#5F6163" d="M258.3,101.1h1.9v1.6l0.1,0c0.9-1.1,2.4-1.8,4.4-1.8c2.4,0,4.3,1.7,4.3,5v7.2h-1.9v-7.2
			c0-2.4-1.3-3.4-2.9-3.4c-1.7,0-3.2,0.7-4.1,2.3v8.3h-1.9V101.1z"/>
		<path fill="#5F6163" d="M277.2,101.1h1.9v-3.8h1.9v3.8h3.6v1.7H281v6.4c0,1.7,0.9,2.4,2.2,2.4c0.7,0,1.3-0.1,1.9-0.3l0.5,1.5
			c-0.7,0.4-1.5,0.5-2.4,0.5c-2.3,0-4.1-1.5-4.1-4.1v-6.4h-1.9V101.1z"/>
		<path fill="#5F6163" d="M289.3,96.2c0.6,0,1.2,0.5,1.2,1.2c0,0.6-0.5,1.2-1.2,1.2c-0.6,0-1.2-0.5-1.2-1.2
			C288.1,96.7,288.7,96.2,289.3,96.2z M288.3,101.1h1.9v12h-1.9V101.1z"/>
		<path fill="#5F6163" d="M312.9,113.1H311v-7.2c0-2.4-1.2-3.4-2.7-3.4s-2.9,0.6-3.6,2.2c0,0.2,0,0.4,0,0.6v7.7h-1.9v-7.7
			c0-2-1.2-2.9-2.7-2.9c-1.6,0-3,0.6-3.8,2.3v8.3h-1.9v-12h1.9v1.5l0.1,0c0.8-1.1,2.3-1.8,4.2-1.8c1.5,0,2.9,0.7,3.6,2.1
			c1.1-1.3,2.6-2.1,4.6-2.1c2.3,0,4.1,1.7,4.1,5V113.1z"/>
		<path fill="#5F6163" d="M326.8,105.9v1.4h-9.1c0.1,2.8,1.7,4.3,4.6,4.3c1.3,0,2.5-0.2,3.5-0.7l0.4,1.6c-1.2,0.6-2.6,0.8-3.9,0.8
			c-3.7,0-6.5-2.4-6.5-6.2c0-3.3,2.3-6.2,5.8-6.3C324.6,100.9,326.4,102.7,326.8,105.9z M317.8,105.7h7.1c-0.1-2-1.5-3.1-3.3-3.1
			C319.5,102.6,318.2,104,317.8,105.7z"/>
		<path fill="#5F6163" d="M330.4,110.7c0.8,0,1.3,0.6,1.3,1.5c0,1.3-0.7,2.9-2.2,4.3l-0.9-0.7c0.7-0.7,1.1-1.4,1.3-2.1
			c-0.3-0.5-0.6-1-0.6-1.6C329.2,111.3,329.6,110.7,330.4,110.7z"/>
		<path fill="#5F6163" d="M351.1,105.9v1.4h-9.1c0.1,2.8,1.7,4.3,4.6,4.3c1.3,0,2.5-0.2,3.5-0.7l0.4,1.6c-1.2,0.6-2.6,0.8-3.9,0.8
			c-3.7,0-6.5-2.4-6.5-6.2c0-3.3,2.3-6.2,5.8-6.3C348.8,100.9,350.7,102.7,351.1,105.9z M342.1,105.7h7.1c-0.1-2-1.5-3.1-3.3-3.1
			C343.8,102.6,342.5,104,342.1,105.7z"/>
		<path fill="#5F6163" d="M358.4,110.9l0.1,0.4h0.1l0.1-0.4l3.8-9.8h2.2l-5.2,12h-1.9l-5.2-12h2.2L358.4,110.9z"/>
		<path fill="#5F6163" d="M376.8,105.9v1.4h-9.1c0.1,2.8,1.7,4.3,4.6,4.3c1.3,0,2.5-0.2,3.5-0.7l0.4,1.6c-1.2,0.6-2.6,0.8-3.9,0.8
			c-3.7,0-6.5-2.4-6.5-6.2c0-3.3,2.3-6.2,5.8-6.3C374.6,100.9,376.4,102.7,376.8,105.9z M367.8,105.7h7.1c-0.1-2-1.5-3.1-3.3-3.1
			C369.6,102.6,368.2,104,367.8,105.7z"/>
		<path fill="#5F6163" d="M379.8,101.1h1.9v1.3l0.1,0.1c0.8-1,2.1-1.7,3.7-1.7h0.3v1.7h-0.6c-1.5,0-2.7,0.7-3.6,1.8v8.8h-1.9V101.1z
			"/>
		<path fill="#5F6163" d="M392.6,110.2l0.1,0.6h0.1l3.4-9.7h2.2l-5.5,14.1c-0.8,2.1-1.9,3.8-5.1,3.8l-0.2-1.7c2,0,2.8-0.8,3.5-2.6
			l0.7-1.9l-5.2-11.8h2.2L392.6,110.2z"/>
		<path fill="#5F6163" d="M405.2,101.1h1.9v-3.8h1.9v3.8h3.6v1.7h-3.6v6.4c0,1.7,0.9,2.4,2.2,2.4c0.7,0,1.3-0.1,1.9-0.3l0.5,1.5
			c-0.7,0.4-1.5,0.5-2.4,0.5c-2.3,0-4.1-1.5-4.1-4.1v-6.4h-1.9V101.1z"/>
		<path fill="#5F6163" d="M417.3,96.2c0.6,0,1.2,0.5,1.2,1.2c0,0.6-0.5,1.2-1.2,1.2c-0.6,0-1.2-0.5-1.2-1.2
			C416.2,96.7,416.7,96.2,417.3,96.2z M416.4,101.1h1.9v12h-1.9V101.1z"/>
		<path fill="#5F6163" d="M441,113.1h-1.9v-7.2c0-2.4-1.2-3.4-2.7-3.4c-1.5,0-2.9,0.6-3.6,2.2c0,0.2,0,0.4,0,0.6v7.7h-1.9v-7.7
			c0-2-1.2-2.9-2.7-2.9c-1.6,0-3,0.6-3.8,2.3v8.3h-1.9v-12h1.9v1.5l0.1,0c0.8-1.1,2.3-1.8,4.2-1.8c1.5,0,2.9,0.7,3.6,2.1
			c1.1-1.3,2.6-2.1,4.6-2.1c2.3,0,4.1,1.7,4.1,5V113.1z"/>
		<path fill="#5F6163" d="M454.8,105.9v1.4h-9.1c0.1,2.8,1.7,4.3,4.6,4.3c1.3,0,2.5-0.2,3.5-0.7l0.4,1.6c-1.2,0.6-2.6,0.8-3.9,0.8
			c-3.7,0-6.5-2.4-6.5-6.2c0-3.3,2.3-6.2,5.8-6.3C452.6,100.9,454.4,102.7,454.8,105.9z M445.8,105.7h7.1c-0.1-2-1.5-3.1-3.3-3.1
			C447.6,102.6,446.2,104,445.8,105.7z"/>
		<path fill="#5F6163" d="M458.4,110.7c0.7,0,1.3,0.6,1.3,1.3c0,0.7-0.6,1.3-1.3,1.3c-0.7,0-1.3-0.6-1.3-1.3
			C457.1,111.3,457.7,110.7,458.4,110.7z"/>
	</g>
	<rect x="674.4" y="82.7" fill="#595A5C" width="20.7" height="2.8"/>
	<g>
		<path fill="#595A5C" d="M670.3,85.5h11.5v-2.8h-12.1c-0.4,0-0.7,0.2-1,0.4l-4.3,4.5l2,1.9L670.3,85.5z"/>
		<polygon fill="#595A5C" points="729.8,40.5 729.8,36.8 716.2,36.8 716.2,81.8 706.6,81.8 706.6,85.6 716.2,85.6 716.2,132.5 
			729.8,132.5 729.8,128.8 720,128.8 720,40.5 		"/>
		<path fill="#595A5C" d="M693.2,83l-14.4-15.1c-0.2-0.2-0.5-0.3-0.7-0.4v0h-0.3h-9.5h-5.1c-0.4,0-0.7,0.2-1,0.4l-9,9.5l2,1.9
			l8.6-9.1h4.5h8.9l13.1,13.7l-13.1,14h-11.5v2.8h12.1c0.4,0,0.7-0.2,1-0.4l14.9-15.9l-0.9-0.8L693.2,83z"/>
	</g>
	
		<circle fill-rule="evenodd" clip-rule="evenodd" fill="#FFFFFF" stroke="#FFFFFF" stroke-width="10" stroke-linejoin="round" cx="693.5" cy="84" r="8"/>
	<circle fill="#EAEAEA" cx="693.5" cy="83.7" r="13.4"/>
	<path fill="#595A5C" d="M694.9,93.4l-0.5-3c0.5-0.1,1.1-0.2,1.6-0.4l1.2,2.8C696.5,93,695.7,93.3,694.9,93.4z M691.4,93.2
		c-0.8-0.2-1.5-0.5-2.2-0.8l1.4-2.7c0.5,0.2,1,0.4,1.5,0.6L691.4,93.2z M700.2,90.7l-2.1-2.1c0.4-0.4,0.7-0.8,1-1.3l2.6,1.5
		C701.2,89.5,700.8,90.2,700.2,90.7z M686.4,90.2c-0.5-0.6-1-1.3-1.3-2l2.7-1.4c0.2,0.5,0.6,0.9,0.9,1.3L686.4,90.2z M702.9,85.5
		l-3-0.5c0.1-0.3,0.1-0.7,0.1-1.1c0-0.2,0-0.4,0-0.6l2-0.2l1-0.1c0,0.3,0,0.6,0,0.9C703,84.5,703,85,702.9,85.5z M684,84.9L684,84.9
		c0-0.3,0-0.6,0-0.9c0-0.5,0-1,0.1-1.5l3,0.5c-0.1,0.3-0.1,0.7-0.1,1c0,0.2,0,0.4,0,0.6L684,84.9z M699.3,81
		c-0.2-0.5-0.6-0.9-0.9-1.3l2.2-2c0.5,0.6,1,1.3,1.3,2L699.3,81z M687.9,80.7l-2.6-1.5c0.4-0.7,0.9-1.3,1.5-1.9l2.1,2.1
		C688.5,79.8,688.2,80.2,687.9,80.7z M696.5,78.2c-0.5-0.2-1-0.4-1.5-0.6l0.7-2.9c0.8,0.2,1.5,0.4,2.2,0.8L696.5,78.2z M690.9,78
		l-1.2-2.8c0.7-0.3,1.5-0.5,2.3-0.7l0.5,3C692,77.6,691.4,77.8,690.9,78z"/>
	<circle fill-rule="evenodd" clip-rule="evenodd" fill="#595A5C" cx="693.5" cy="84" r="3.2"/>
	<g>
		<g>
			<defs>
				<ellipse id="SVGID_1_" cx="771" cy="136.4" rx="34.3" ry="4.2"/>
			</defs>
			<clipPath id="SVGID_2_">
				<use xlink:href="#SVGID_1_"  overflow="visible"/>
			</clipPath>
			<g clip-path="url(#SVGID_2_)">
				<line fill="none" stroke="#D1D2D3" stroke-width="0.5" x1="648.6" y1="172.2" x2="694.2" y2="93.1"/>
				<line fill="none" stroke="#D1D2D3" stroke-width="0.5" x1="651.1" y1="172.2" x2="696.7" y2="93.1"/>
				<line fill="none" stroke="#D1D2D3" stroke-width="0.5" x1="653.6" y1="172.2" x2="699.2" y2="93.1"/>
				<line fill="none" stroke="#D1D2D3" stroke-width="0.5" x1="656.1" y1="172.2" x2="701.7" y2="93.1"/>
				<line fill="none" stroke="#D1D2D3" stroke-width="0.5" x1="658.6" y1="172.2" x2="704.3" y2="93.1"/>
				<line fill="none" stroke="#D1D2D3" stroke-width="0.5" x1="661.2" y1="172.2" x2="706.8" y2="93.1"/>
				<line fill="none" stroke="#D1D2D3" stroke-width="0.5" x1="663.7" y1="172.2" x2="709.3" y2="93.1"/>
				<line fill="none" stroke="#D1D2D3" stroke-width="0.5" x1="666.2" y1="172.2" x2="711.8" y2="93.1"/>
				<line fill="none" stroke="#D1D2D3" stroke-width="0.5" x1="668.7" y1="172.2" x2="714.3" y2="93.1"/>
				<line fill="none" stroke="#D1D2D3" stroke-width="0.5" x1="671.2" y1="172.2" x2="716.8" y2="93.1"/>
				<line fill="none" stroke="#D1D2D3" stroke-width="0.5" x1="673.7" y1="172.2" x2="719.4" y2="93.1"/>
				<line fill="none" stroke="#D1D2D3" stroke-width="0.5" x1="676.3" y1="172.2" x2="721.9" y2="93.1"/>
				<line fill="none" stroke="#D1D2D3" stroke-width="0.5" x1="678.8" y1="172.2" x2="724.4" y2="93.1"/>
				<line fill="none" stroke="#D1D2D3" stroke-width="0.5" x1="681.3" y1="172.2" x2="726.9" y2="93.1"/>
				<line fill="none" stroke="#D1D2D3" stroke-width="0.5" x1="683.8" y1="172.2" x2="729.4" y2="93.1"/>
				<line fill="none" stroke="#D1D2D3" stroke-width="0.5" x1="686.3" y1="172.2" x2="731.9" y2="93.1"/>
				<line fill="none" stroke="#D1D2D3" stroke-width="0.5" x1="688.8" y1="172.2" x2="734.5" y2="93.1"/>
				<line fill="none" stroke="#D1D2D3" stroke-width="0.5" x1="691.4" y1="172.2" x2="737" y2="93.1"/>
				<line fill="none" stroke="#D1D2D3" stroke-width="0.5" x1="693.9" y1="172.2" x2="739.5" y2="93.1"/>
				<line fill="none" stroke="#D1D2D3" stroke-width="0.5" x1="696.4" y1="172.2" x2="742" y2="93.1"/>
				<line fill="none" stroke="#D1D2D3" stroke-width="0.5" x1="698.9" y1="172.2" x2="744.5" y2="93.1"/>
				<line fill="none" stroke="#D1D2D3" stroke-width="0.5" x1="701.4" y1="172.2" x2="747" y2="93.1"/>
				<line fill="none" stroke="#D1D2D3" stroke-width="0.5" x1="703.9" y1="172.2" x2="749.6" y2="93.1"/>
				<line fill="none" stroke="#D1D2D3" stroke-width="0.5" x1="706.5" y1="172.2" x2="752.1" y2="93.1"/>
				<line fill="none" stroke="#D1D2D3" stroke-width="0.5" x1="709" y1="172.2" x2="754.6" y2="93.1"/>
				<line fill="none" stroke="#D1D2D3" stroke-width="0.5" x1="711.5" y1="172.2" x2="757.1" y2="93.1"/>
				<line fill="none" stroke="#D1D2D3" stroke-width="0.5" x1="714" y1="172.2" x2="759.6" y2="93.1"/>
				<line fill="none" stroke="#D1D2D3" stroke-width="0.5" x1="716.5" y1="172.2" x2="762.2" y2="93.1"/>
				<line fill="none" stroke="#D1D2D3" stroke-width="0.5" x1="719.1" y1="172.2" x2="764.7" y2="93.1"/>
				<line fill="none" stroke="#D1D2D3" stroke-width="0.5" x1="721.6" y1="172.2" x2="767.2" y2="93.1"/>
				<line fill="none" stroke="#D1D2D3" stroke-width="0.5" x1="724.1" y1="172.2" x2="769.7" y2="93.1"/>
				<line fill="none" stroke="#D1D2D3" stroke-width="0.5" x1="726.6" y1="172.2" x2="772.2" y2="93.1"/>
				<line fill="none" stroke="#D1D2D3" stroke-width="0.5" x1="729.1" y1="172.2" x2="774.7" y2="93.1"/>
				<line fill="none" stroke="#D1D2D3" stroke-width="0.5" x1="731.6" y1="172.2" x2="777.3" y2="93.1"/>
				<line fill="none" stroke="#D1D2D3" stroke-width="0.5" x1="734.2" y1="172.2" x2="779.8" y2="93.1"/>
				<line fill="none" stroke="#D1D2D3" stroke-width="0.5" x1="736.7" y1="172.2" x2="782.3" y2="93.1"/>
				<line fill="none" stroke="#D1D2D3" stroke-width="0.5" x1="739.2" y1="172.2" x2="784.8" y2="93.1"/>
				<line fill="none" stroke="#D1D2D3" stroke-width="0.5" x1="741.7" y1="172.2" x2="787.3" y2="93.1"/>
				<line fill="none" stroke="#D1D2D3" stroke-width="0.5" x1="744.2" y1="172.2" x2="789.8" y2="93.1"/>
				<line fill="none" stroke="#D1D2D3" stroke-width="0.5" x1="746.7" y1="172.2" x2="792.4" y2="93.1"/>
				<line fill="none" stroke="#D1D2D3" stroke-width="0.5" x1="749.3" y1="172.2" x2="794.9" y2="93.1"/>
				<line fill="none" stroke="#D1D2D3" stroke-width="0.5" x1="751.8" y1="172.2" x2="797.4" y2="93.1"/>
				<line fill="none" stroke="#D1D2D3" stroke-width="0.5" x1="754.3" y1="172.2" x2="799.9" y2="93.1"/>
				<line fill="none" stroke="#D1D2D3" stroke-width="0.5" x1="756.8" y1="172.2" x2="802.4" y2="93.1"/>
				<line fill="none" stroke="#D1D2D3" stroke-width="0.5" x1="759.3" y1="172.2" x2="804.9" y2="93.1"/>
				<line fill="none" stroke="#D1D2D3" stroke-width="0.5" x1="761.8" y1="172.2" x2="807.5" y2="93.1"/>
				<line fill="none" stroke="#D1D2D3" stroke-width="0.5" x1="764.4" y1="172.2" x2="810" y2="93.1"/>
				<line fill="none" stroke="#D1D2D3" stroke-width="0.5" x1="766.9" y1="172.2" x2="812.5" y2="93.1"/>
				<line fill="none" stroke="#D1D2D3" stroke-width="0.5" x1="769.4" y1="172.2" x2="815" y2="93.1"/>
				<line fill="none" stroke="#D1D2D3" stroke-width="0.5" x1="771.9" y1="172.2" x2="817.5" y2="93.1"/>
				<line fill="none" stroke="#D1D2D3" stroke-width="0.5" x1="774.4" y1="172.2" x2="820" y2="93.1"/>
				<line fill="none" stroke="#D1D2D3" stroke-width="0.5" x1="776.9" y1="172.2" x2="822.6" y2="93.1"/>
				<line fill="none" stroke="#D1D2D3" stroke-width="0.5" x1="779.5" y1="172.2" x2="825.1" y2="93.1"/>
				<line fill="none" stroke="#D1D2D3" stroke-width="0.5" x1="782" y1="172.2" x2="827.6" y2="93.1"/>
				<line fill="none" stroke="#D1D2D3" stroke-width="0.5" x1="784.5" y1="172.2" x2="830.1" y2="93.1"/>
				<line fill="none" stroke="#D1D2D3" stroke-width="0.5" x1="787" y1="172.2" x2="832.6" y2="93.1"/>
				<line fill="none" stroke="#D1D2D3" stroke-width="0.5" x1="789.5" y1="172.2" x2="835.2" y2="93.1"/>
				<line fill="none" stroke="#D1D2D3" stroke-width="0.5" x1="792.1" y1="172.2" x2="837.7" y2="93.1"/>
				<line fill="none" stroke="#D1D2D3" stroke-width="0.5" x1="794.6" y1="172.2" x2="840.2" y2="93.1"/>
				<line fill="none" stroke="#D1D2D3" stroke-width="0.5" x1="797.1" y1="172.2" x2="842.7" y2="93.1"/>
				<line fill="none" stroke="#D1D2D3" stroke-width="0.5" x1="799.6" y1="172.2" x2="845.2" y2="93.1"/>
				<line fill="none" stroke="#D1D2D3" stroke-width="0.5" x1="802.1" y1="172.2" x2="847.7" y2="93.1"/>
				<line fill="none" stroke="#D1D2D3" stroke-width="0.5" x1="804.6" y1="172.2" x2="850.3" y2="93.1"/>
				<line fill="none" stroke="#D1D2D3" stroke-width="0.5" x1="807.2" y1="172.2" x2="852.8" y2="93.1"/>
				<line fill="none" stroke="#D1D2D3" stroke-width="0.5" x1="809.7" y1="172.2" x2="855.3" y2="93.1"/>
				<line fill="none" stroke="#D1D2D3" stroke-width="0.5" x1="812.2" y1="172.2" x2="857.8" y2="93.1"/>
				<line fill="none" stroke="#D1D2D3" stroke-width="0.5" x1="814.7" y1="172.2" x2="860.3" y2="93.1"/>
				<line fill="none" stroke="#D1D2D3" stroke-width="0.5" x1="817.2" y1="172.2" x2="862.8" y2="93.1"/>
				<line fill="none" stroke="#D1D2D3" stroke-width="0.5" x1="819.7" y1="172.2" x2="865.4" y2="93.1"/>
				<line fill="none" stroke="#D1D2D3" stroke-width="0.5" x1="822.3" y1="172.2" x2="867.9" y2="93.1"/>
				<line fill="none" stroke="#D1D2D3" stroke-width="0.5" x1="824.8" y1="172.2" x2="870.4" y2="93.1"/>
				<line fill="none" stroke="#D1D2D3" stroke-width="0.5" x1="827.3" y1="172.2" x2="872.9" y2="93.1"/>
				<line fill="none" stroke="#D1D2D3" stroke-width="0.5" x1="829.8" y1="172.2" x2="875.4" y2="93.1"/>
				<line fill="none" stroke="#D1D2D3" stroke-width="0.5" x1="832.3" y1="172.2" x2="877.9" y2="93.1"/>
				<line fill="none" stroke="#D1D2D3" stroke-width="0.5" x1="834.8" y1="172.2" x2="880.5" y2="93.1"/>
				<line fill="none" stroke="#D1D2D3" stroke-width="0.5" x1="837.4" y1="172.2" x2="883" y2="93.1"/>
				<line fill="none" stroke="#D1D2D3" stroke-width="0.5" x1="839.9" y1="172.2" x2="885.5" y2="93.1"/>
				<line fill="none" stroke="#D1D2D3" stroke-width="0.5" x1="842.4" y1="172.2" x2="888" y2="93.1"/>
				<line fill="none" stroke="#D1D2D3" stroke-width="0.5" x1="844.9" y1="172.2" x2="890.5" y2="93.1"/>
				<line fill="none" stroke="#D1D2D3" stroke-width="0.5" x1="847.4" y1="172.2" x2="893.1" y2="93.1"/>
				<line fill="none" stroke="#D1D2D3" stroke-width="0.5" x1="849.9" y1="172.2" x2="895.6" y2="93.1"/>
				<line fill="none" stroke="#D1D2D3" stroke-width="0.5" x1="852.5" y1="172.2" x2="898.1" y2="93.1"/>
				<line fill="none" stroke="#D1D2D3" stroke-width="0.5" x1="855" y1="172.2" x2="900.6" y2="93.1"/>
				<line fill="none" stroke="#D1D2D3" stroke-width="0.5" x1="857.5" y1="172.2" x2="903.1" y2="93.1"/>
				<line fill="none" stroke="#D1D2D3" stroke-width="0.5" x1="860" y1="172.2" x2="905.6" y2="93.1"/>
				<line fill="none" stroke="#D1D2D3" stroke-width="0.5" x1="862.5" y1="172.2" x2="908.2" y2="93.1"/>
				<line fill="none" stroke="#D1D2D3" stroke-width="0.5" x1="865.1" y1="172.2" x2="910.7" y2="93.1"/>
				<line fill="none" stroke="#D1D2D3" stroke-width="0.5" x1="867.6" y1="172.2" x2="913.2" y2="93.1"/>
				<line fill="none" stroke="#D1D2D3" stroke-width="0.5" x1="870.1" y1="172.2" x2="915.7" y2="93.1"/>
				<line fill="none" stroke="#D1D2D3" stroke-width="0.5" x1="872.6" y1="172.2" x2="918.2" y2="93.1"/>
				<line fill="none" stroke="#D1D2D3" stroke-width="0.5" x1="875.1" y1="172.2" x2="920.7" y2="93.1"/>
				<line fill="none" stroke="#D1D2D3" stroke-width="0.5" x1="877.6" y1="172.2" x2="923.3" y2="93.1"/>
				<line fill="none" stroke="#D1D2D3" stroke-width="0.5" x1="880.2" y1="172.2" x2="925.8" y2="93.1"/>
				<line fill="none" stroke="#D1D2D3" stroke-width="0.5" x1="882.7" y1="172.2" x2="928.3" y2="93.1"/>
			</g>
		</g>
		
			<ellipse fill-rule="evenodd" clip-rule="evenodd" fill="none" stroke="#BBBDBF" stroke-width="0.5" cx="771.1" cy="136.4" rx="34.3" ry="4.2"/>
	</g>
	<g>
		<g>
			<defs>
				<ellipse id="SVGID_3_" cx="771" cy="95.4" rx="34.3" ry="4.2"/>
			</defs>
			<clipPath id="SVGID_4_">
				<use xlink:href="#SVGID_3_"  overflow="visible"/>
			</clipPath>
			<g clip-path="url(#SVGID_4_)">
				<line fill="none" stroke="#D1D2D3" stroke-width="0.5" x1="648.5" y1="131.1" x2="694.2" y2="52.1"/>
				<line fill="none" stroke="#D1D2D3" stroke-width="0.5" x1="651.1" y1="131.1" x2="696.7" y2="52.1"/>
				<line fill="none" stroke="#D1D2D3" stroke-width="0.5" x1="653.6" y1="131.1" x2="699.2" y2="52.1"/>
				<line fill="none" stroke="#D1D2D3" stroke-width="0.5" x1="656.1" y1="131.1" x2="701.7" y2="52.1"/>
				<line fill="none" stroke="#D1D2D3" stroke-width="0.5" x1="658.6" y1="131.1" x2="704.2" y2="52.1"/>
				<line fill="none" stroke="#D1D2D3" stroke-width="0.5" x1="661.1" y1="131.1" x2="706.7" y2="52.1"/>
				<line fill="none" stroke="#D1D2D3" stroke-width="0.5" x1="663.6" y1="131.1" x2="709.3" y2="52.1"/>
				<line fill="none" stroke="#D1D2D3" stroke-width="0.5" x1="666.2" y1="131.1" x2="711.8" y2="52.1"/>
				<line fill="none" stroke="#D1D2D3" stroke-width="0.5" x1="668.7" y1="131.1" x2="714.3" y2="52.1"/>
				<line fill="none" stroke="#D1D2D3" stroke-width="0.5" x1="671.2" y1="131.1" x2="716.8" y2="52.1"/>
				<line fill="none" stroke="#D1D2D3" stroke-width="0.5" x1="673.7" y1="131.1" x2="719.3" y2="52.1"/>
				<line fill="none" stroke="#D1D2D3" stroke-width="0.5" x1="676.2" y1="131.1" x2="721.8" y2="52.1"/>
				<line fill="none" stroke="#D1D2D3" stroke-width="0.5" x1="678.7" y1="131.1" x2="724.4" y2="52.1"/>
				<line fill="none" stroke="#D1D2D3" stroke-width="0.5" x1="681.3" y1="131.1" x2="726.9" y2="52.1"/>
				<line fill="none" stroke="#D1D2D3" stroke-width="0.5" x1="683.8" y1="131.1" x2="729.4" y2="52.1"/>
				<line fill="none" stroke="#D1D2D3" stroke-width="0.5" x1="686.3" y1="131.1" x2="731.9" y2="52.1"/>
				<line fill="none" stroke="#D1D2D3" stroke-width="0.5" x1="688.8" y1="131.1" x2="734.4" y2="52.1"/>
				<line fill="none" stroke="#D1D2D3" stroke-width="0.5" x1="691.3" y1="131.1" x2="736.9" y2="52.1"/>
				<line fill="none" stroke="#D1D2D3" stroke-width="0.5" x1="693.8" y1="131.1" x2="739.5" y2="52.1"/>
				<line fill="none" stroke="#D1D2D3" stroke-width="0.5" x1="696.4" y1="131.1" x2="742" y2="52.1"/>
				<line fill="none" stroke="#D1D2D3" stroke-width="0.5" x1="698.9" y1="131.1" x2="744.5" y2="52.1"/>
				<line fill="none" stroke="#D1D2D3" stroke-width="0.5" x1="701.4" y1="131.1" x2="747" y2="52.1"/>
				<line fill="none" stroke="#D1D2D3" stroke-width="0.5" x1="703.9" y1="131.1" x2="749.5" y2="52.1"/>
				<line fill="none" stroke="#D1D2D3" stroke-width="0.5" x1="706.4" y1="131.1" x2="752.1" y2="52.1"/>
				<line fill="none" stroke="#D1D2D3" stroke-width="0.5" x1="708.9" y1="131.1" x2="754.6" y2="52.1"/>
				<line fill="none" stroke="#D1D2D3" stroke-width="0.5" x1="711.5" y1="131.1" x2="757.1" y2="52.1"/>
				<line fill="none" stroke="#D1D2D3" stroke-width="0.5" x1="714" y1="131.1" x2="759.6" y2="52.1"/>
				<line fill="none" stroke="#D1D2D3" stroke-width="0.5" x1="716.5" y1="131.1" x2="762.1" y2="52.1"/>
				<line fill="none" stroke="#D1D2D3" stroke-width="0.5" x1="719" y1="131.1" x2="764.6" y2="52.1"/>
				<line fill="none" stroke="#D1D2D3" stroke-width="0.5" x1="721.5" y1="131.1" x2="767.2" y2="52.1"/>
				<line fill="none" stroke="#D1D2D3" stroke-width="0.5" x1="724.1" y1="131.1" x2="769.7" y2="52.1"/>
				<line fill="none" stroke="#D1D2D3" stroke-width="0.5" x1="726.6" y1="131.1" x2="772.2" y2="52.1"/>
				<line fill="none" stroke="#D1D2D3" stroke-width="0.5" x1="729.1" y1="131.1" x2="774.7" y2="52.1"/>
				<line fill="none" stroke="#D1D2D3" stroke-width="0.5" x1="731.6" y1="131.1" x2="777.2" y2="52.1"/>
				<line fill="none" stroke="#D1D2D3" stroke-width="0.5" x1="734.1" y1="131.1" x2="779.7" y2="52.1"/>
				<line fill="none" stroke="#D1D2D3" stroke-width="0.5" x1="736.6" y1="131.1" x2="782.3" y2="52.1"/>
				<line fill="none" stroke="#D1D2D3" stroke-width="0.5" x1="739.2" y1="131.1" x2="784.8" y2="52.1"/>
				<line fill="none" stroke="#D1D2D3" stroke-width="0.5" x1="741.7" y1="131.1" x2="787.3" y2="52.1"/>
				<line fill="none" stroke="#D1D2D3" stroke-width="0.5" x1="744.2" y1="131.1" x2="789.8" y2="52.1"/>
				<line fill="none" stroke="#D1D2D3" stroke-width="0.5" x1="746.7" y1="131.1" x2="792.3" y2="52.1"/>
				<line fill="none" stroke="#D1D2D3" stroke-width="0.5" x1="749.2" y1="131.1" x2="794.8" y2="52.1"/>
				<line fill="none" stroke="#D1D2D3" stroke-width="0.5" x1="751.7" y1="131.1" x2="797.4" y2="52.1"/>
				<line fill="none" stroke="#D1D2D3" stroke-width="0.5" x1="754.3" y1="131.1" x2="799.9" y2="52.1"/>
				<line fill="none" stroke="#D1D2D3" stroke-width="0.5" x1="756.8" y1="131.1" x2="802.4" y2="52.1"/>
				<line fill="none" stroke="#D1D2D3" stroke-width="0.5" x1="759.3" y1="131.1" x2="804.9" y2="52.1"/>
				<line fill="none" stroke="#D1D2D3" stroke-width="0.5" x1="761.8" y1="131.1" x2="807.4" y2="52.1"/>
				<line fill="none" stroke="#D1D2D3" stroke-width="0.5" x1="764.3" y1="131.1" x2="809.9" y2="52.1"/>
				<line fill="none" stroke="#D1D2D3" stroke-width="0.5" x1="766.8" y1="131.1" x2="812.5" y2="52.1"/>
				<line fill="none" stroke="#D1D2D3" stroke-width="0.5" x1="769.4" y1="131.1" x2="815" y2="52.1"/>
				<line fill="none" stroke="#D1D2D3" stroke-width="0.5" x1="771.9" y1="131.1" x2="817.5" y2="52.1"/>
				<line fill="none" stroke="#D1D2D3" stroke-width="0.5" x1="774.4" y1="131.1" x2="820" y2="52.1"/>
				<line fill="none" stroke="#D1D2D3" stroke-width="0.5" x1="776.9" y1="131.1" x2="822.5" y2="52.1"/>
				<line fill="none" stroke="#D1D2D3" stroke-width="0.5" x1="779.4" y1="131.1" x2="825.1" y2="52.1"/>
				<line fill="none" stroke="#D1D2D3" stroke-width="0.5" x1="781.9" y1="131.1" x2="827.6" y2="52.1"/>
				<line fill="none" stroke="#D1D2D3" stroke-width="0.5" x1="784.5" y1="131.1" x2="830.1" y2="52.1"/>
				<line fill="none" stroke="#D1D2D3" stroke-width="0.5" x1="787" y1="131.1" x2="832.6" y2="52.1"/>
				<line fill="none" stroke="#D1D2D3" stroke-width="0.5" x1="789.5" y1="131.1" x2="835.1" y2="52.1"/>
				<line fill="none" stroke="#D1D2D3" stroke-width="0.5" x1="792" y1="131.1" x2="837.6" y2="52.1"/>
				<line fill="none" stroke="#D1D2D3" stroke-width="0.5" x1="794.5" y1="131.1" x2="840.2" y2="52.1"/>
				<line fill="none" stroke="#D1D2D3" stroke-width="0.5" x1="797.1" y1="131.1" x2="842.7" y2="52.1"/>
				<line fill="none" stroke="#D1D2D3" stroke-width="0.5" x1="799.6" y1="131.1" x2="845.2" y2="52.1"/>
				<line fill="none" stroke="#D1D2D3" stroke-width="0.5" x1="802.1" y1="131.1" x2="847.7" y2="52.1"/>
				<line fill="none" stroke="#D1D2D3" stroke-width="0.5" x1="804.6" y1="131.1" x2="850.2" y2="52.1"/>
				<line fill="none" stroke="#D1D2D3" stroke-width="0.5" x1="807.1" y1="131.1" x2="852.7" y2="52.1"/>
				<line fill="none" stroke="#D1D2D3" stroke-width="0.5" x1="809.6" y1="131.1" x2="855.3" y2="52.1"/>
				<line fill="none" stroke="#D1D2D3" stroke-width="0.5" x1="812.2" y1="131.1" x2="857.8" y2="52.1"/>
				<line fill="none" stroke="#D1D2D3" stroke-width="0.5" x1="814.7" y1="131.1" x2="860.3" y2="52.1"/>
				<line fill="none" stroke="#D1D2D3" stroke-width="0.5" x1="817.2" y1="131.1" x2="862.8" y2="52.1"/>
				<line fill="none" stroke="#D1D2D3" stroke-width="0.5" x1="819.7" y1="131.1" x2="865.3" y2="52.1"/>
				<line fill="none" stroke="#D1D2D3" stroke-width="0.5" x1="822.2" y1="131.1" x2="867.8" y2="52.1"/>
				<line fill="none" stroke="#D1D2D3" stroke-width="0.5" x1="824.7" y1="131.1" x2="870.4" y2="52.1"/>
				<line fill="none" stroke="#D1D2D3" stroke-width="0.5" x1="827.3" y1="131.1" x2="872.9" y2="52.1"/>
				<line fill="none" stroke="#D1D2D3" stroke-width="0.5" x1="829.8" y1="131.1" x2="875.4" y2="52.1"/>
				<line fill="none" stroke="#D1D2D3" stroke-width="0.5" x1="832.3" y1="131.1" x2="877.9" y2="52.1"/>
				<line fill="none" stroke="#D1D2D3" stroke-width="0.5" x1="834.8" y1="131.1" x2="880.4" y2="52.1"/>
				<line fill="none" stroke="#D1D2D3" stroke-width="0.5" x1="837.3" y1="131.1" x2="882.9" y2="52.1"/>
				<line fill="none" stroke="#D1D2D3" stroke-width="0.5" x1="839.8" y1="131.1" x2="885.5" y2="52.1"/>
				<line fill="none" stroke="#D1D2D3" stroke-width="0.5" x1="842.4" y1="131.1" x2="888" y2="52.1"/>
				<line fill="none" stroke="#D1D2D3" stroke-width="0.5" x1="844.9" y1="131.1" x2="890.5" y2="52.1"/>
				<line fill="none" stroke="#D1D2D3" stroke-width="0.5" x1="847.4" y1="131.1" x2="893" y2="52.1"/>
				<line fill="none" stroke="#D1D2D3" stroke-width="0.5" x1="849.9" y1="131.1" x2="895.5" y2="52.1"/>
				<line fill="none" stroke="#D1D2D3" stroke-width="0.5" x1="852.4" y1="131.1" x2="898.1" y2="52.1"/>
				<line fill="none" stroke="#D1D2D3" stroke-width="0.5" x1="855" y1="131.1" x2="900.6" y2="52.1"/>
				<line fill="none" stroke="#D1D2D3" stroke-width="0.5" x1="857.5" y1="131.1" x2="903.1" y2="52.1"/>
				<line fill="none" stroke="#D1D2D3" stroke-width="0.5" x1="860" y1="131.1" x2="905.6" y2="52.1"/>
				<line fill="none" stroke="#D1D2D3" stroke-width="0.5" x1="862.5" y1="131.1" x2="908.1" y2="52.1"/>
				<line fill="none" stroke="#D1D2D3" stroke-width="0.5" x1="865" y1="131.1" x2="910.6" y2="52.1"/>
				<line fill="none" stroke="#D1D2D3" stroke-width="0.5" x1="867.5" y1="131.1" x2="913.2" y2="52.1"/>
				<line fill="none" stroke="#D1D2D3" stroke-width="0.5" x1="870.1" y1="131.1" x2="915.7" y2="52.1"/>
				<line fill="none" stroke="#D1D2D3" stroke-width="0.5" x1="872.6" y1="131.1" x2="918.2" y2="52.1"/>
				<line fill="none" stroke="#D1D2D3" stroke-width="0.5" x1="875.1" y1="131.1" x2="920.7" y2="52.1"/>
				<line fill="none" stroke="#D1D2D3" stroke-width="0.5" x1="877.6" y1="131.1" x2="923.2" y2="52.1"/>
				<line fill="none" stroke="#D1D2D3" stroke-width="0.5" x1="880.1" y1="131.1" x2="925.7" y2="52.1"/>
				<line fill="none" stroke="#D1D2D3" stroke-width="0.5" x1="882.6" y1="131.1" x2="928.3" y2="52.1"/>
			</g>
		</g>
		
			<ellipse fill-rule="evenodd" clip-rule="evenodd" fill="none" stroke="#BBBDBF" stroke-width="0.5" cx="771.1" cy="95.4" rx="34.3" ry="4.2"/>
	</g>
	<g>
		<g>
			<defs>
				<ellipse id="SVGID_5_" cx="771" cy="54.2" rx="34.3" ry="4.2"/>
			</defs>
			<clipPath id="SVGID_6_">
				<use xlink:href="#SVGID_5_"  overflow="visible"/>
			</clipPath>
			<g clip-path="url(#SVGID_6_)">
				<line fill="none" stroke="#D1D2D3" stroke-width="0.5" x1="648.5" y1="89.9" x2="694.1" y2="10.9"/>
				<line fill="none" stroke="#D1D2D3" stroke-width="0.5" x1="651" y1="89.9" x2="696.6" y2="10.9"/>
				<line fill="none" stroke="#D1D2D3" stroke-width="0.5" x1="653.5" y1="89.9" x2="699.2" y2="10.9"/>
				<line fill="none" stroke="#D1D2D3" stroke-width="0.5" x1="656.1" y1="89.9" x2="701.7" y2="10.9"/>
				<line fill="none" stroke="#D1D2D3" stroke-width="0.5" x1="658.6" y1="89.9" x2="704.2" y2="10.9"/>
				<line fill="none" stroke="#D1D2D3" stroke-width="0.5" x1="661.1" y1="89.9" x2="706.7" y2="10.9"/>
				<line fill="none" stroke="#D1D2D3" stroke-width="0.5" x1="663.6" y1="89.9" x2="709.2" y2="10.9"/>
				<line fill="none" stroke="#D1D2D3" stroke-width="0.5" x1="666.1" y1="89.9" x2="711.7" y2="10.9"/>
				<line fill="none" stroke="#D1D2D3" stroke-width="0.5" x1="668.6" y1="89.9" x2="714.3" y2="10.9"/>
				<line fill="none" stroke="#D1D2D3" stroke-width="0.5" x1="671.2" y1="89.9" x2="716.8" y2="10.9"/>
				<line fill="none" stroke="#D1D2D3" stroke-width="0.5" x1="673.7" y1="89.9" x2="719.3" y2="10.9"/>
				<line fill="none" stroke="#D1D2D3" stroke-width="0.5" x1="676.2" y1="89.9" x2="721.8" y2="10.9"/>
				<line fill="none" stroke="#D1D2D3" stroke-width="0.5" x1="678.7" y1="89.9" x2="724.3" y2="10.9"/>
				<line fill="none" stroke="#D1D2D3" stroke-width="0.5" x1="681.2" y1="89.9" x2="726.8" y2="10.9"/>
				<line fill="none" stroke="#D1D2D3" stroke-width="0.5" x1="683.7" y1="89.9" x2="729.4" y2="10.9"/>
				<line fill="none" stroke="#D1D2D3" stroke-width="0.5" x1="686.3" y1="89.9" x2="731.9" y2="10.9"/>
				<line fill="none" stroke="#D1D2D3" stroke-width="0.5" x1="688.8" y1="89.9" x2="734.4" y2="10.9"/>
				<line fill="none" stroke="#D1D2D3" stroke-width="0.5" x1="691.3" y1="89.9" x2="736.9" y2="10.9"/>
				<line fill="none" stroke="#D1D2D3" stroke-width="0.5" x1="693.8" y1="89.9" x2="739.4" y2="10.9"/>
				<line fill="none" stroke="#D1D2D3" stroke-width="0.5" x1="696.3" y1="89.9" x2="741.9" y2="10.9"/>
				<line fill="none" stroke="#D1D2D3" stroke-width="0.5" x1="698.8" y1="89.9" x2="744.5" y2="10.9"/>
				<line fill="none" stroke="#D1D2D3" stroke-width="0.5" x1="701.4" y1="89.9" x2="747" y2="10.9"/>
				<line fill="none" stroke="#D1D2D3" stroke-width="0.5" x1="703.9" y1="89.9" x2="749.5" y2="10.9"/>
				<line fill="none" stroke="#D1D2D3" stroke-width="0.5" x1="706.4" y1="89.9" x2="752" y2="10.9"/>
				<line fill="none" stroke="#D1D2D3" stroke-width="0.5" x1="708.9" y1="89.9" x2="754.5" y2="10.9"/>
				<line fill="none" stroke="#D1D2D3" stroke-width="0.5" x1="711.4" y1="89.9" x2="757.1" y2="10.9"/>
				<line fill="none" stroke="#D1D2D3" stroke-width="0.5" x1="714" y1="89.9" x2="759.6" y2="10.9"/>
				<line fill="none" stroke="#D1D2D3" stroke-width="0.5" x1="716.5" y1="89.9" x2="762.1" y2="10.9"/>
				<line fill="none" stroke="#D1D2D3" stroke-width="0.5" x1="719" y1="89.9" x2="764.6" y2="10.9"/>
				<line fill="none" stroke="#D1D2D3" stroke-width="0.5" x1="721.5" y1="89.9" x2="767.1" y2="10.9"/>
				<line fill="none" stroke="#D1D2D3" stroke-width="0.5" x1="724" y1="89.9" x2="769.6" y2="10.9"/>
				<line fill="none" stroke="#D1D2D3" stroke-width="0.5" x1="726.5" y1="89.9" x2="772.2" y2="10.9"/>
				<line fill="none" stroke="#D1D2D3" stroke-width="0.5" x1="729.1" y1="89.9" x2="774.7" y2="10.9"/>
				<line fill="none" stroke="#D1D2D3" stroke-width="0.5" x1="731.6" y1="89.9" x2="777.2" y2="10.9"/>
				<line fill="none" stroke="#D1D2D3" stroke-width="0.5" x1="734.1" y1="89.9" x2="779.7" y2="10.9"/>
				<line fill="none" stroke="#D1D2D3" stroke-width="0.5" x1="736.6" y1="89.9" x2="782.2" y2="10.9"/>
				<line fill="none" stroke="#D1D2D3" stroke-width="0.5" x1="739.1" y1="89.9" x2="784.7" y2="10.9"/>
				<line fill="none" stroke="#D1D2D3" stroke-width="0.5" x1="741.6" y1="89.9" x2="787.3" y2="10.9"/>
				<line fill="none" stroke="#D1D2D3" stroke-width="0.5" x1="744.2" y1="89.9" x2="789.8" y2="10.9"/>
				<line fill="none" stroke="#D1D2D3" stroke-width="0.5" x1="746.7" y1="89.9" x2="792.3" y2="10.9"/>
				<line fill="none" stroke="#D1D2D3" stroke-width="0.5" x1="749.2" y1="89.9" x2="794.8" y2="10.9"/>
				<line fill="none" stroke="#D1D2D3" stroke-width="0.5" x1="751.7" y1="89.9" x2="797.3" y2="10.9"/>
				<line fill="none" stroke="#D1D2D3" stroke-width="0.5" x1="754.2" y1="89.9" x2="799.8" y2="10.9"/>
				<line fill="none" stroke="#D1D2D3" stroke-width="0.5" x1="756.7" y1="89.9" x2="802.4" y2="10.9"/>
				<line fill="none" stroke="#D1D2D3" stroke-width="0.5" x1="759.3" y1="89.9" x2="804.9" y2="10.9"/>
				<line fill="none" stroke="#D1D2D3" stroke-width="0.5" x1="761.8" y1="89.9" x2="807.4" y2="10.9"/>
				<line fill="none" stroke="#D1D2D3" stroke-width="0.5" x1="764.3" y1="89.9" x2="809.9" y2="10.9"/>
				<line fill="none" stroke="#D1D2D3" stroke-width="0.5" x1="766.8" y1="89.9" x2="812.4" y2="10.9"/>
				<line fill="none" stroke="#D1D2D3" stroke-width="0.5" x1="769.3" y1="89.9" x2="814.9" y2="10.9"/>
				<line fill="none" stroke="#D1D2D3" stroke-width="0.5" x1="771.8" y1="89.9" x2="817.5" y2="10.9"/>
				<line fill="none" stroke="#D1D2D3" stroke-width="0.5" x1="774.4" y1="89.9" x2="820" y2="10.9"/>
				<line fill="none" stroke="#D1D2D3" stroke-width="0.5" x1="776.9" y1="89.9" x2="822.5" y2="10.9"/>
				<line fill="none" stroke="#D1D2D3" stroke-width="0.5" x1="779.4" y1="89.9" x2="825" y2="10.9"/>
				<line fill="none" stroke="#D1D2D3" stroke-width="0.5" x1="781.9" y1="89.9" x2="827.5" y2="10.9"/>
				<line fill="none" stroke="#D1D2D3" stroke-width="0.5" x1="784.4" y1="89.9" x2="830.1" y2="10.9"/>
				<line fill="none" stroke="#D1D2D3" stroke-width="0.5" x1="787" y1="89.9" x2="832.6" y2="10.9"/>
				<line fill="none" stroke="#D1D2D3" stroke-width="0.5" x1="789.5" y1="89.9" x2="835.1" y2="10.9"/>
				<line fill="none" stroke="#D1D2D3" stroke-width="0.5" x1="792" y1="89.9" x2="837.6" y2="10.9"/>
				<line fill="none" stroke="#D1D2D3" stroke-width="0.5" x1="794.5" y1="89.9" x2="840.1" y2="10.9"/>
				<line fill="none" stroke="#D1D2D3" stroke-width="0.5" x1="797" y1="89.9" x2="842.6" y2="10.9"/>
				<line fill="none" stroke="#D1D2D3" stroke-width="0.5" x1="799.5" y1="89.9" x2="845.2" y2="10.9"/>
				<line fill="none" stroke="#D1D2D3" stroke-width="0.5" x1="802.1" y1="89.9" x2="847.7" y2="10.9"/>
				<line fill="none" stroke="#D1D2D3" stroke-width="0.5" x1="804.6" y1="89.9" x2="850.2" y2="10.9"/>
				<line fill="none" stroke="#D1D2D3" stroke-width="0.5" x1="807.1" y1="89.9" x2="852.7" y2="10.9"/>
				<line fill="none" stroke="#D1D2D3" stroke-width="0.5" x1="809.6" y1="89.9" x2="855.2" y2="10.9"/>
				<line fill="none" stroke="#D1D2D3" stroke-width="0.5" x1="812.1" y1="89.9" x2="857.7" y2="10.9"/>
				<line fill="none" stroke="#D1D2D3" stroke-width="0.5" x1="814.6" y1="89.9" x2="860.3" y2="10.9"/>
				<line fill="none" stroke="#D1D2D3" stroke-width="0.5" x1="817.2" y1="89.9" x2="862.8" y2="10.9"/>
				<line fill="none" stroke="#D1D2D3" stroke-width="0.5" x1="819.7" y1="89.9" x2="865.3" y2="10.9"/>
				<line fill="none" stroke="#D1D2D3" stroke-width="0.5" x1="822.2" y1="89.9" x2="867.8" y2="10.9"/>
				<line fill="none" stroke="#D1D2D3" stroke-width="0.5" x1="824.7" y1="89.9" x2="870.3" y2="10.9"/>
				<line fill="none" stroke="#D1D2D3" stroke-width="0.5" x1="827.2" y1="89.9" x2="872.8" y2="10.9"/>
				<line fill="none" stroke="#D1D2D3" stroke-width="0.5" x1="829.7" y1="89.9" x2="875.4" y2="10.9"/>
				<line fill="none" stroke="#D1D2D3" stroke-width="0.5" x1="832.3" y1="89.9" x2="877.9" y2="10.9"/>
				<line fill="none" stroke="#D1D2D3" stroke-width="0.5" x1="834.8" y1="89.9" x2="880.4" y2="10.9"/>
				<line fill="none" stroke="#D1D2D3" stroke-width="0.5" x1="837.3" y1="89.9" x2="882.9" y2="10.9"/>
				<line fill="none" stroke="#D1D2D3" stroke-width="0.5" x1="839.8" y1="89.9" x2="885.4" y2="10.9"/>
				<line fill="none" stroke="#D1D2D3" stroke-width="0.5" x1="842.3" y1="89.9" x2="888" y2="10.9"/>
				<line fill="none" stroke="#D1D2D3" stroke-width="0.5" x1="844.8" y1="89.9" x2="890.5" y2="10.9"/>
				<line fill="none" stroke="#D1D2D3" stroke-width="0.5" x1="847.4" y1="89.9" x2="893" y2="10.9"/>
				<line fill="none" stroke="#D1D2D3" stroke-width="0.5" x1="849.9" y1="89.9" x2="895.5" y2="10.9"/>
				<line fill="none" stroke="#D1D2D3" stroke-width="0.5" x1="852.4" y1="89.9" x2="898" y2="10.9"/>
				<line fill="none" stroke="#D1D2D3" stroke-width="0.5" x1="854.9" y1="89.9" x2="900.5" y2="10.9"/>
				<line fill="none" stroke="#D1D2D3" stroke-width="0.5" x1="857.4" y1="89.9" x2="903.1" y2="10.9"/>
				<line fill="none" stroke="#D1D2D3" stroke-width="0.5" x1="860" y1="89.9" x2="905.6" y2="10.9"/>
				<line fill="none" stroke="#D1D2D3" stroke-width="0.5" x1="862.5" y1="89.9" x2="908.1" y2="10.9"/>
				<line fill="none" stroke="#D1D2D3" stroke-width="0.5" x1="865" y1="89.9" x2="910.6" y2="10.9"/>
				<line fill="none" stroke="#D1D2D3" stroke-width="0.5" x1="867.5" y1="89.9" x2="913.1" y2="10.9"/>
				<line fill="none" stroke="#D1D2D3" stroke-width="0.5" x1="870" y1="89.9" x2="915.6" y2="10.9"/>
				<line fill="none" stroke="#D1D2D3" stroke-width="0.5" x1="872.5" y1="89.9" x2="918.2" y2="10.9"/>
				<line fill="none" stroke="#D1D2D3" stroke-width="0.5" x1="875.1" y1="89.9" x2="920.7" y2="10.9"/>
				<line fill="none" stroke="#D1D2D3" stroke-width="0.5" x1="877.6" y1="89.9" x2="923.2" y2="10.9"/>
				<line fill="none" stroke="#D1D2D3" stroke-width="0.5" x1="880.1" y1="89.9" x2="925.7" y2="10.9"/>
				<line fill="none" stroke="#D1D2D3" stroke-width="0.5" x1="882.6" y1="89.9" x2="928.2" y2="10.9"/>
			</g>
		</g>
		
			<ellipse fill-rule="evenodd" clip-rule="evenodd" fill="none" stroke="#BBBDBF" stroke-width="0.5" cx="771" cy="54.2" rx="34.3" ry="4.2"/>
	</g>
	<g>
		<path fill="#F26822" d="M791.5,124.8c0,0-2.9-3.5-4.6-5.4l-2.4,5.6c3.4,5.1,5.7,9.5,6.9,11.6c2.4-4.1,8.4-16.4,20.7-27.8l-1.4-3.2
			C802.8,111.5,796,119.1,791.5,124.8"/>
	</g>
	<g>
		<path fill="#F26822" d="M791.5,83.6c0,0-2.9-3.5-4.6-5.4l-2.4,5.6c3.4,5.1,5.7,9.5,6.9,11.6c2.4-4.1,8.4-16.4,20.7-27.8l-1.4-3.2
			C802.8,70.4,796,77.9,791.5,83.6"/>
	</g>
	<g>
		<path fill="#F26822" d="M791.5,42.5c0,0-2.9-3.5-4.6-5.4l-2.4,5.6c3.4,5.1,5.7,9.5,6.9,11.6c2.4-4.1,8.4-16.4,20.7-27.8l-1.4-3.2
			C802.8,29.2,796,36.7,791.5,42.5"/>
	</g>
	<line fill="none" stroke="#595A5C" stroke-width="4" x1="740.9" y1="92.4" x2="780.6" y2="92.4"/>
	<g>
		<path fill="#595A5C" d="M771.7,76.7c-1-4.4-4.5-7.9-8.9-8.7v-3.5h-4V68c-4.4,0.8-8,4.3-8.9,8.7h-9.1v11.2h4v-7.2h4.8v0.2l0,0.1h0
			v7h4v-7H768v7h4v-7h0l0-0.1v-0.2h4.8v7.2h4V76.7H771.7z M760.8,71.8c3.1,0,5.8,2,6.8,4.9H754C755,73.8,757.7,71.8,760.8,71.8z"/>
		<rect x="743.1" y="49.4" fill="#595A5C" width="36.6" height="4"/>
		<path fill="#595A5C" d="M745.1,36.2v10.7h4V36.2h5.6v10.7h4V36.2h5.6v10.7h4V36.2h5.6v10.7h4V36.2h1.9l0.7-3.9l-19-6.6l-19,6.6
			l0.7,3.9H745.1z M761.4,30l6.4,2.2H755L761.4,30z"/>
		<polygon fill="#595A5C" points="753.9,108.4 749.9,108.4 749.9,113.7 742.2,113.7 742.2,134.5 746.2,134.5 746.2,117.7 
			774.7,117.7 774.7,134.5 778.7,134.5 778.7,113.7 753.9,113.7 		"/>
		<rect x="750.5" y="128.3" fill="#595A5C" width="4" height="6.2"/>
		<rect x="758.6" y="128.3" fill="#595A5C" width="4" height="6.2"/>
		<rect x="766.6" y="128.3" fill="#595A5C" width="4" height="6.2"/>
	</g>
	<g>
		<path fill="#A6A8AC" d="M658.5,97.9l8-8.4l-2-1.9l-9.8,10.3h-16.8V90h6.6c0.4,0,0.7-0.2,1-0.4l9.7-10.2l-2-1.9l-9.3,9.8h-6V55
			c0-0.3-0.1-0.7-0.4-0.9l-14.7-16c-0.4-0.4-1-0.6-1.5-0.3c-0.5,0.2-0.9,0.7-0.9,1.3l0,13.1h-49.3V33.9l20.3,10.8v-3.1L575.2,33
			h42.9l-15.6,8.3v3.1l20-10.6c0.5-0.2,0.7-0.7,0.7-1.2l0-0.9c0-0.8-0.6-1.4-1.4-1.4h-52.2c-0.8,0-1.4,0.6-1.4,1.4v21.9
			c0,0.8,0.6,1.4,1.4,1.4h52.1c0.4,0,0.7-0.1,1-0.4c0.3-0.3,0.4-0.6,0.4-1l0-10.9l12,13v31.7h-12.7c-0.8,0-1.4,0.6-1.4,1.4v13.1
			h-49.9v-18l24.4,13c0.2,0.1,0.4,0.2,0.6,0.2c0.2,0,0.4-0.1,0.6-0.2l26.3-14c0.4-0.2,0.7-0.7,0.7-1.2c0-0.5-0.3-1-0.7-1.2l-6-3.2
			V63h-42.4v14l-5.7,3.1c-0.4,0.2-0.7,0.7-0.7,1.2v21.9c0,0.8,0.6,1.4,1.4,1.4h52.7c0.8,0,1.4-0.6,1.4-1.4V90h11.4v9.3
			c0,0.8,0.6,1.4,1.4,1.4h15.6l-14.7,15.5h-13.9v-4.3h-54.9v26.9h54.9v-16.5h-2.8v0h-24.9v-7.6h24.9v4.2h2.5v0h14.8
			c0.4,0,0.7-0.2,1-0.4l16.9-17.8h16.6v-2.8H658.5z M617.1,80.3l2.4,1.3l-2.4,1.3V80.3z M577.5,65.7h36.9v18.6L596.2,94l-18.7-9.9
			V65.7z M574.7,80.1v2.5l-2.4-1.3L574.7,80.1z M593,136.1h-21.7v-4.2H593V136.1z M593,129.1h-21.7v-14.4H593V129.1z M602.1,136.1
			h-6.4v-4.2h6.4V136.1z M614,125.1h6.7v4H614V125.1z M614,131.8h6.7v4.2H614V131.8z M604.9,125.1h6.4v4h-6.4V125.1z M604.9,131.8
			h6.4v4.2h-6.4V131.8z M602.1,125.1v4h-6.4v-4H602.1z"/>
		<path fill="#A6A8AC" d="M597.4,48.4v-1.2c2.1-0.2,3-1.4,3-2.8c0-1.8-1.5-2.4-3-2.7v-2.4c0.7,0.1,1.3,0.5,1.8,1l0.9-1.2
			c-0.7-0.7-1.6-1.1-2.8-1.2v-1.3h-1.1v1.3c-1.8,0.2-2.9,1.3-2.9,2.7c0,1.8,1.5,2.3,2.9,2.6v2.7c-1-0.2-1.8-0.7-2.3-1.2l-0.9,1.2
			c0.7,0.8,1.8,1.3,3.2,1.4v1.2H597.4z M597.4,43.4c0.8,0.2,1.3,0.5,1.3,1.1c0,0.5-0.4,1.1-1.3,1.2V43.4z M595.1,40.3
			c0-0.6,0.5-1,1.2-1.1v2.1C595.6,41.2,595.1,40.9,595.1,40.3z"/>
	</g>
	<g>
		<rect x="587.6" y="69.9" fill="#A6A8AC" width="22.3" height="3"/>
		<rect x="581.7" y="69.9" fill="#A6A8AC" width="3.5" height="3"/>
		<rect x="587.6" y="76.3" fill="#A6A8AC" width="22.3" height="3"/>
		<rect x="581.7" y="76.3" fill="#A6A8AC" width="3.5" height="3"/>
	</g>
</g>
</svg>
