<?xml version="1.0" encoding="utf-8"?>
<!-- Generator: Adobe Illustrator 18.1.1, SVG Export Plug-In . SVG Version: 6.00 Build 0)  -->
<!DOCTYPE svg PUBLIC "-//W3C//DTD SVG 1.1//EN" "http://www.w3.org/Graphics/SVG/1.1/DTD/svg11.dtd">
<svg version="1.1" id="Layer_1" xmlns="http://www.w3.org/2000/svg" xmlns:xlink="http://www.w3.org/1999/xlink" x="0px" y="0px"
	 viewBox="0 0 110.5 111.6" enable-background="new 0 0 110.5 111.6" xml:space="preserve">
<g>
	<path fill="#059BD2" d="M55.3,84.7c0,0-5.8-7-9.1-10.9l-4.8,11.2c6.9,10.2,11.4,19,13.9,23.2c4.9-8.2,16.7-32.7,41.3-55.5l-2.7-6.4
		C77.9,58.2,64.3,73.2,55.3,84.7"/>
	<path fill="#FF6600" d="M91,111.6h19.5L93.3,70.5c-5,5.3-9.3,10.6-13.1,15.6L91,111.6z"/>
	<path fill="#FF6600" d="M63.8,0h-0.1H46.8h-0.1L0,111.6h19.4l33.7-79.6l1.6-4.3h0.9l1.6,4.3l10,23.6c4.5-4.4,9.3-8.8,14.4-12.9
		L63.8,0z"/>
</g>
</svg>
