<?xml version="1.0" encoding="utf-8"?>
<!-- Generator: Adobe Illustrator 18.1.1, SVG Export Plug-In . SVG Version: 6.00 Build 0)  -->
<!DOCTYPE svg PUBLIC "-//W3C//DTD SVG 1.1//EN" "http://www.w3.org/Graphics/SVG/1.1/DTD/svg11.dtd">
<svg version="1.1" id="Layer_1" xmlns="http://www.w3.org/2000/svg" xmlns:xlink="http://www.w3.org/1999/xlink" x="0px" y="0px"
	 viewBox="0 0 77.7 86.9" enable-background="new 0 0 77.7 86.9" xml:space="preserve">
<g>
	<path fill="#919195" d="M62.3,53H38.8v-7.2l1.3-2.3c1.1-1.9,10.7-19.1,11.9-24.7c0.3-1.1,0.4-2.2,0.4-3.4C52.4,6.9,45.5,0,37,0
		c-8.5,0-15.4,6.9-15.4,15.4c0,1.1,0.1,2.3,0.4,3.4c1.3,5.6,10.9,22.8,11.9,24.7l1.3,2.3V53H11.8v-9H8.2v9h0v3.5h57.6v-1.8h0V44
		h-3.5V53z M25.4,18c-0.2-0.8-0.3-1.7-0.3-2.6c0-6.6,5.3-11.9,11.9-11.9c6.6,0,11.9,5.3,11.9,11.9c0,0.9-0.1,1.8-0.3,2.6
		c-1.1,4.7-9.3,19.7-11.2,23.1h-0.8C34.8,37.7,26.5,22.7,25.4,18z"/>
	<path fill="#919195" d="M10,39.5l1.5-2.7c0.8-1.3,7.4-13.2,8.2-17c0.2-0.7,0.2-1.5,0.2-2.2c0-5.5-4.5-10-10-10c-5.5,0-10,4.5-10,10
		c0,0.7,0.1,1.5,0.2,2.2c0.9,3.8,7.5,15.6,8.2,17L10,39.5z M3.5,17.6c0-3.6,2.9-6.5,6.5-6.5c3.6,0,6.5,2.9,6.5,6.5
		c0,0.5-0.1,1-0.2,1.4c-0.5,2.2-4,8.9-6.3,13.3c-2.4-4.4-5.8-11-6.3-13.3C3.6,18.6,3.5,18.1,3.5,17.6z"/>
	<circle fill="#919195" cx="33" cy="12.8" r="1.9"/>
	
		<rect x="35.3" y="9.7" transform="matrix(0.7071 0.7071 -0.7071 0.7071 22.7902 -21.2724)" fill="#919195" width="3.5" height="14.4"/>
	<path fill="#919195" d="M41.1,19c-1.1,0-1.9,0.9-1.9,1.9c0,1.1,0.9,1.9,1.9,1.9c1.1,0,1.9-0.9,1.9-1.9C43,19.8,42.2,19,41.1,19z"/>
	<path fill="#919195" d="M64.1,7.6c-5.5,0-10,4.5-10,10c0,0.7,0.1,1.5,0.2,2.2c0.9,3.8,7.5,15.6,8.2,17l1.5,2.7l1.5-2.7
		c0.8-1.3,7.4-13.2,8.2-17c0.2-0.7,0.2-1.5,0.2-2.2C74.1,12.1,69.6,7.6,64.1,7.6z M70.4,19c-0.5,2.2-4,8.9-6.3,13.3
		c-2.4-4.4-5.8-11-6.3-13.3c-0.1-0.5-0.2-1-0.2-1.4c0-3.6,2.9-6.5,6.5-6.5c3.6,0,6.5,2.9,6.5,6.5C70.6,18.1,70.5,18.6,70.4,19z"/>
	<g>
		<rect x="8.3" y="63.8" fill="#919195" width="57.7" height="3.5"/>
	</g>
	<polygon fill="#919195" points="8.3,74.7 8.3,78.2 53.5,78.2 55,74.7 	"/>
	<path fill="#F26722" d="M62.4,78.2c0,0-2.1-2.6-3.4-4l-1.8,4.2c2.5,3.8,4.2,7,5.1,8.6c1.8-3.1,6.2-12.1,15.3-20.6l-1-2.4
		C70.8,68.3,65.8,73.9,62.4,78.2"/>
</g>
</svg>
