<?xml version="1.0" encoding="utf-8"?>
<!-- Generator: Adobe Illustrator 21.1.0, SVG Export Plug-In . SVG Version: 6.00 Build 0)  -->
<svg version="1.1" id="Layer_1" xmlns="http://www.w3.org/2000/svg" xmlns:xlink="http://www.w3.org/1999/xlink" x="0px" y="0px"
	 viewBox="0 0 290 416" style="enable-background:new 0 0 290 416;" xml:space="preserve">
<style type="text/css">
	.st0{fill:#929292;}
	.st1{fill:#919191;}
	.st2{fill:#FEC9A8;}
	.st3{fill:#FDAE7D;}
	.st4{fill:#FF6600;}
	.st5{fill:#FC9456;}
</style>
<g>
	<path class="st0" d="M148.5,121c11.4,3.3,21.7,8.9,31.3,16c7.4-7.8,16.3-12,27.1-11.9c7.5,0,14.3,2.4,20.4,6.7
		c11.2,7.9,19.7,25.1,11.6,44c0.7,0.3,1.4,0.5,2.1,0.8c9,3.2,17.1,7.8,24.1,14.3c9.4,8.8,15.7,19.3,18,32
		c2.9,16.3-1.2,30.8-11.9,43.4c-7.8,9.1-17.8,14.5-29.4,17.3c-0.8,0.2-1.2,0.5-1.4,1.3c-5.1,18.2-14.6,33.9-28.2,47.1
		c-7.6,7.4-16.1,13.4-25.6,18.1c-0.9,0.4-1.2,0.9-1.2,1.9c0,13.4,0,26.8,0,40.2c0,9.3-6.2,16.5-15.4,17.8
		c-8.7,1.3-17.6-5.1-19.2-13.9c-0.2-1.2-0.4-2.5-0.4-3.8c0-10.2,0-20.3,0-30.5c0-0.4,0-0.8,0-1.3c-8.4,0.8-16.6,0.6-25-0.5
		c0,0.5,0,0.9,0,1.3c0,10.4,0,20.9,0,31.3c0,8.8-6.9,16.4-15.7,17.3c-8.9,0.9-17.2-5.1-18.9-13.9c-0.2-1.1-0.4-2.3-0.4-3.5
		c0-14.4,0-28.7,0-43.1c0-0.7-0.2-1.1-0.8-1.4c-5.5-3-10.6-6.4-15.4-10.4c-0.5-0.4-1-0.5-1.6-0.2c-5.5,2.7-11.2,4.5-17.3,5.1
		c-12.6,1.2-23.7-2.2-33.1-10.9c-8-7.4-12.3-16.7-13.4-27.5c-1.3-13.7,2.6-25.8,11.8-36c4-4.4,8.8-7.9,14.2-10.5
		c0.5-0.2,0.8-0.5,0.8-1.1c0-14.7,2.2-29.1,6-43.3c0-0.2,0.1-0.4,0.1-0.6c-12.5-4.7-20.6-13.4-23.6-26.5c-2-9-0.5-17.5,4.1-25.5
		c9.6-16.6,32.6-23.8,51.2-11.3c1.5-1.6,2.9-3.3,4.5-4.9c7.3-7.8,15.5-14.4,25.1-19.2c8.3-4.1,17-6.6,26.2-6.6
		c4.1,0,8.1,0.4,12.2,0.7c0.4,0,0.8,0.1,1.3,0.1c-0.1-0.3-0.2-0.5-0.3-0.7c-2.2-3.8-4.5-7.5-6.7-11.3c-0.3-0.5-0.6-0.6-1.1-0.7
		c-9.1-0.3-18.3-0.5-27.4-1.1c-11-0.7-21.9-2.3-32.5-5.6c-7.2-2.3-14-5.6-19.7-10.8c-6.7-6-10.6-13.6-12.2-22.4
		c-1.4-8.4-1.1-16.7,1.5-24.8C47.4,32.2,54,25,63,19.9c6.7-3.8,14.1-6,21.6-7.6c9.6-2,19.4-3.1,29.1-3.4c9.8-0.4,19.6-0.6,29.4-0.7
		c7.5-0.1,15,0,22.4,0.1c9.9,0.2,19.7,0.7,29.5,1.9c9.3,1.1,18.5,2.8,27.2,6.3c6.9,2.7,13.2,6.5,18.2,12.1
		c5.3,5.8,8.3,12.7,9.5,20.4c1.2,7.8,0.9,15.5-1.4,23c-3.3,10.7-10.2,18.3-20,23.6c-6.8,3.6-14,5.7-21.5,7.2
		c-10.6,2.1-21.4,3.1-32.2,3.5c-5.6,0.2-11.2,0.3-16.8,0.4c-0.5,0-0.8,0.2-1.1,0.7c-1.3,2.3-2.6,4.5-4,6.7
		C151.5,116.4,150,118.7,148.5,121z M237,260.6c0-2.3,0.1-4.4,0-6.6c-0.3-11.2-2.7-22-6.2-32.6c-5.4-15.9-13.1-30.7-22.7-44.4
		c-9.2-13-19.8-24.7-32.6-34.3c-8.9-6.6-18.4-11.9-29.2-14.8c-7.5-2.1-15.1-2.8-22.8-1.7c-7.8,1.1-15,3.9-21.7,7.9
		c-10,5.9-18.2,13.9-25.3,23c-8.4,10.7-15,22.5-20.2,35.1c-9,21.7-14.2,44.3-13.5,67.9c0.2,7.5,1.4,14.9,3.3,22.2
		c0.1,0.4,0.2,0.6,0.8,0.6c2.7-0.3,5.4-0.6,8.1-0.9c7.9-0.9,15.7-1.9,23.6-2.8c0.7-0.1,1.1-0.3,1.6-0.9c6.4-7.9,16.9-9.1,24.9-2.9
		c0.4,0.3,1.1,0.5,1.6,0.5c3.4-0.3,6.9-0.8,10.3-1.2c6.8-0.8,13.6-1.6,20.4-2.4c6.9-0.8,13.8-1.6,20.7-2.4
		c6.8-0.8,13.5-1.6,20.3-2.4c7.3-0.9,14.7-1.7,22-2.6c7.4-0.9,14.8-1.7,22.3-2.6C227.2,261.7,232.1,261.2,237,260.6z M146.2,111.5
		c0.3-0.6,0.6-1,0.9-1.4c1.7-2.8,3.3-5.6,5-8.5c0.8-1.4,2-2,3.5-2c8.6-0.2,17.1-0.4,25.6-0.8c8.6-0.4,17.2-1.4,25.7-3.2
		c7-1.5,13.8-3.6,20.1-7.3c7.6-4.5,12.8-10.8,15.1-19.4c1.6-6.2,1.7-12.6,0.8-18.9c-1.3-8.7-5.4-15.9-12.6-21.1
		c-5.2-3.8-11.1-6.1-17.3-7.9c-9.8-2.7-19.8-3.9-29.8-4.5c-9.6-0.5-19.2-0.9-28.8-1c-15.6-0.2-31.2-0.1-46.8,1.1
		c-8,0.6-16,1.5-23.8,3.3c-6.4,1.4-12.6,3.4-18.3,6.7c-8,4.6-13.4,11.4-15.4,20.5c-1.5,6.4-1.5,12.9-0.3,19.4
		c1.6,8,5.6,14.5,12.1,19.5c4.8,3.7,10.3,6,16.1,7.8c9.9,3,20,4.3,30.2,4.9c9.5,0.6,18.9,0.7,28.4,1c1.8,0.1,3,0.7,3.9,2.3
		C142.3,105,144.3,108.2,146.2,111.5z M96.7,318.3c0.4,0,0.6,0,0.8-0.1c5.7-0.7,11.4-1.4,17.1-2c10.1-1.2,20.2-2.3,30.2-3.5
		c12.5-1.5,25-2.9,37.4-4.4c13.1-1.5,26.2-3.1,39.2-4.6c1.3-0.2,2.8,0,3.8-0.7s1.4-2.2,1.9-3.4c4.4-9,7.4-18.5,8.9-28.5
		c0.2-1.1,0.3-2.2,0.5-3.3c-42.1,4.9-84,9.8-126,14.7c0.1,0.5,0.1,0.8,0.2,1.2c1,4.2,1,8.2-0.8,12.2c-2.5,5.8-5.5,11.2-9.1,16.4
		C99.5,314.3,98.1,316.2,96.7,318.3z M80,333.4c45.3,34.9,109.5,23.8,140.6-22.4c-1.7,0.2-3.4,0.4-5.1,0.6
		c-6.9,0.8-13.8,1.6-20.8,2.4c-6.7,0.8-13.5,1.6-20.2,2.4c-7.3,0.9-14.7,1.7-22,2.6c-6.8,0.8-13.6,1.6-20.4,2.4
		c-6.8,0.8-13.6,1.6-20.5,2.4c-7.4,0.9-14.8,1.7-22.3,2.6c-0.5,0.1-1,0.3-1.3,0.6c-2,1.6-4,3.2-6,4.9
		C81.5,332.3,80.7,332.8,80,333.4z M35.8,264.9c-3.1,2.2-6.1,4.2-8.7,6.8c-9.9,10.2-13.4,22.3-10.5,36.1
		c2.5,12.2,9.8,20.9,21.4,25.6c8.4,3.4,16.9,3,25.4,0.2c9.2-3,16.8-8.4,23.5-15.3c7.1-7.4,12.5-15.9,16.6-25.3
		c0.5-1.1,0.8-2.4,0.8-3.6c0.2-5.1-3.2-9.4-8.1-10.6c-4.8-1.1-9.8,1.4-11.8,6c-3.6,8.2-8.3,15.6-15.1,21.5
		c-4.6,4.1-9.7,7.2-15.8,8.3c-6.5,1.2-12.6-1.7-15.3-7.6c-2.9-6.2-2.2-12.3,1.6-18c0.5-0.7,0.6-1.3,0.3-2.2
		c-1.7-5.5-2.8-11.1-3.5-16.8C36.2,268.5,36,266.8,35.8,264.9z M220.3,182.7c0.2,0.3,0.4,0.6,0.5,0.9c3.2,5.9,6.4,11.9,9.5,17.8
		c0.4,0.8,0.9,1.3,1.8,1.6c6.9,2.6,13,6.3,17.7,12.1c5.3,6.5,7.4,13.9,5.7,22.2c-1.3,6.4-4.9,11.3-10.4,14.8c-0.8,0.5-1.1,1-1.1,2
		c0.2,6.1-0.1,12.2-1.1,18.3c-0.2,1.2-0.3,2.4-0.5,3.6c0.2,0,0.2,0,0.3,0c1.1-0.4,2.1-0.8,3.2-1.2c7.3-2.6,13.8-6.5,19-12.2
		c9.1-9.9,12.9-21.7,11.6-35.1c-1.3-12.5-6.9-22.8-16-31.3c-8.6-8.1-19-12.8-30.5-15.6C226.5,179.9,223.4,181,220.3,182.7z
		 M118.2,358.7c-7.2-1.5-14-3.8-20.8-6.6c0,0.5,0,0.9,0,1.2c0,13,0,26,0,39.1c0,5.8,4.6,10.5,10.3,10.5c5.8,0,10.4-4.6,10.4-10.5
		c0-9.3,0-18.7,0-28C118.2,362.6,118.2,360.7,118.2,358.7z M178.2,353.8c-0.4,0.1-0.7,0.2-1,0.3c-6.1,2.2-12.3,4-18.7,5.2
		c-0.8,0.1-1.1,0.5-1.1,1.3c0,10.6,0,21.3,0,31.9c0,5.8,4.6,10.4,10.3,10.4c5.8,0,10.4-4.6,10.4-10.4c0-12.5,0-25,0-37.5
		C178.2,354.6,178.2,354.2,178.2,353.8z M46.9,196.3c-5.1-2.1-9-5.4-11.1-10.6c-2.1-5.2-2-10.3,0.5-15.3c2.1-4.2,5.4-7.2,9.7-9
		c6-2.4,11.8-1.5,17.3,1.8c1.9-2.8,3.8-5.5,5.7-8.2c-10.5-6.4-22.1-6.6-31.6-0.2c-9.8,6.6-14.2,16.1-12.6,27.8
		c1.5,11.4,8.4,18.8,18.9,23.1C44.7,202.6,45.8,199.5,46.9,196.3z M220.5,173.9c0.6-0.1,1-0.1,1.4-0.1c2.7-0.2,5.5-0.7,8.3-0.3
		c1.8,0.3,1.8,0.2,2.5-1.5c3.4-8.3,3.3-16.5-0.9-24.5c-6.1-11.6-18.5-17.3-31.3-14.7c-5.9,1.2-10.8,4.3-15,8.5
		c1.8,1.6,3.6,3.3,5.4,4.9c0.6,0.6,1.3,1.5,1.9,1.6c0.7,0,1.4-0.9,2-1.4c4.4-3.5,9.4-4.9,14.9-3.9c12.6,2.3,19.1,15.8,13.1,27.1
		C222,171,221.3,172.3,220.5,173.9z M56.3,306.5c8.9-4.3,14.6-11.6,19.5-19.9c-9.2,1.1-18.3,2.1-27.4,3.2
		C49.3,293.2,54.6,304.2,56.3,306.5z M49.2,189.9c3.5-7,6.9-14,10.4-21c-1.5-0.5-3.1-1-4.6-1.4c-0.7-0.2-1.5-0.2-2.2-0.2
		c-8.7,0.1-14,9.4-9.9,17C44.4,186.9,46.8,188.4,49.2,189.9z M212.6,170.8c0.8-0.8,1.7-1.7,2.5-2.7c4.2-4.8,3.6-12.3-1.4-16.2
		c-5.1-4.1-10.9-3.2-15.9,0.9C202.7,158.8,207.6,164.8,212.6,170.8z M234.7,210.3c1.8,5.8,3.9,12,5.5,18.2s2.7,12.6,4.1,18.9
		c0.1-0.2,0.2-0.5,0.3-0.7c1-2.5,2-5,2.9-7.5c2.5-6.3,1.7-12.3-2.2-17.8c-1.4-2-3.2-3.8-5-5.6C238.5,213.7,236.5,211.9,234.7,210.3z
		"/>
	<path class="st1" d="M145.6,235.1c-2.8-0.1-5.3-1-7.6-2.5c-0.8-0.5-1.2-0.5-1.9,0.2c-3,3.2-6.6,4.7-11,4.5
		c-6.2-0.3-11.8-5.7-12.4-11.9c-0.2-1.9,1.2-3.6,3.1-3.9c1.8-0.3,3.6,1.1,3.9,3c0.6,4.4,4.8,6.6,8.4,5.4c2.5-0.9,4.2-3.2,4.2-5.9
		c0-0.3,0-0.6,0-1c-0.1-2.1,1.3-3.7,3.3-3.8c1.8-0.1,3.5,1.3,3.8,3.2c0.6,3.8,3.9,6.2,7.7,5.4c3-0.6,5.2-3.6,4.9-6.6
		c-0.2-2.2,1.1-4,3.2-4.2c2-0.2,3.7,1.3,3.9,3.6c0.6,6.4-3.8,12.6-10.1,14.1C147.9,234.9,146.7,235,145.6,235.1z"/>
	<path class="st1" d="M78.1,217.9c0.3,0.5,0.5,0.9,0.7,1.3c1.3,1.8,1.6,3.8,1.7,5.9c0.1,1.9-1.3,3.6-3.2,3.8c-1.8,0.2-3.5-1.1-3.8-3
		c-0.1-0.9-0.4-1.8-0.3-2.6c0.1-0.9,0.3-1.9,0.6-2.7c0.4-0.9,1-1.7,1.6-2.7c-0.8-0.3-1.5-0.6-2.2-0.8c-2.4-0.8-4.6-1.9-6.3-3.8
		c-1-1.1-1.3-2.3-0.9-3.7c0.5-1.4,1.5-2.2,2.9-2.4c1.1-0.2,2.1,0.2,2.9,1c2.7,2.9,7.3,2.9,9.9,0c1.4-1.5,3.6-1.4,5,0s1.4,3.5-0.1,5
		c-2,2.2-4.7,3.3-7.4,4.1C79,217.5,78.6,217.7,78.1,217.9z"/>
	<path class="st2" d="M204.3,228.9c2.2,0,3.8,1.4,3.9,3.3c0.2,1.9-1.2,3.6-3.1,3.8c-5.6,0.7-11.1,1.3-16.7,1.9
		c-2.1,0.2-3.7-1.1-4-3.2c-0.2-1.8,1.2-3.6,3.2-3.9c4.5-0.6,9-1.1,13.5-1.6C202.2,229.1,203.4,229,204.3,228.9z"/>
	<path class="st2" d="M71.3,251.6c-1.9,0-3.5-1.5-3.6-3.3s1.2-3.5,3-3.7c3.7-0.5,7.4-0.9,11.2-1.3c1.9-0.2,3.7-0.4,5.6-0.6
		c2.1-0.2,3.8,1.1,4.1,3.1c0.2,1.9-1.1,3.6-3.1,3.9c-4,0.5-8.1,1-12.1,1.4C74.5,251.2,72.9,251.4,71.3,251.6z"/>
	<path class="st1" d="M190.8,198.7c-3.7-0.1-7-1.4-9.7-4c-1.6-1.6-1.7-3.8-0.2-5.3c1.4-1.4,3.6-1.4,5.2,0.2c2.8,2.7,6.7,2.7,9.6,0
		c1.6-1.5,3.8-1.6,5.2-0.1s1.4,3.6-0.2,5.2C197.9,197.3,194.6,198.6,190.8,198.7z"/>
	<path class="st0" d="M197.3,211.5c0,2-1.4,3.5-3.3,3.7c-1.9,0.2-3.5-1.1-3.8-3c-0.1-1-0.3-2-0.4-2.9c-0.2-2,1.2-3.7,3.1-3.9
		c2-0.2,3.7,1.1,3.9,3.2C197.1,209.6,197.2,210.6,197.3,211.5z"/>
	<path class="st3" d="M80.3,57.3c0-8.3,6.8-15,15.1-15s15,6.9,14.9,15.4c0,8.1-6.9,14.7-15.2,14.7C87,72.3,80.3,65.5,80.3,57.3z"/>
	<path class="st4" d="M197.1,72.4c-8.3,0-15-6.7-15-15.1c0-8.2,6.8-15,15-15c8.3,0,15.1,6.8,15,15.1
		C212.2,65.6,205.4,72.4,197.1,72.4z"/>
	<path class="st5" d="M161.2,57.4c0,8.3-6.7,15-15.1,15c-8.3,0-14.9-6.8-14.9-15.1c0-8.1,6.8-14.9,15-14.9
		C154.5,42.3,161.2,49.1,161.2,57.4z"/>
</g>
</svg>
